<svg id="图层_21" data-name="图层 21" xmlns="http://www.w3.org/2000/svg" viewBox="0 0 149.4 121.49"><defs><style>.cls-1,.cls-4{fill:#fff;}.cls-1,.cls-5,.cls-6{stroke:#aa6f6c;stroke-linecap:round;stroke-linejoin:round;}.cls-1,.cls-5{stroke-width:2px;}.cls-2{fill:#efdbbb;}.cls-3{opacity:0.76;}.cls-5{fill:none;stroke-dasharray:15.01 15.01;}.cls-6{font-size:32px;stroke-width:0.25px;font-family:YouYuan;}.cls-6,.cls-7{fill:#aa6f6c;}.cls-7{font-size:12px;font-family:BradleyHandITC, Bradley Hand ITC;}.cls-8{fill:#f19460;}.cls-9{fill:#f5ef6a;}</style></defs><title>404</title><rect class="cls-1" x="13.63" y="1" width="24.06" height="36.69" rx="11.24"/><rect class="cls-2" x="19.2" y="6.45" width="17.01" height="22.68" rx="7.09"/><rect class="cls-1" x="108.58" y="1" width="24.06" height="36.69" rx="11.24"/><rect class="cls-2" x="114.16" y="6.45" width="17.01" height="22.68" rx="7.09"/><rect class="cls-1" x="1" y="18.44" width="147.4" height="102.05" rx="21.26"/><rect class="cls-2" x="5.29" y="23.11" width="141.73" height="96.38" rx="21.26"/><g class="cls-3"><rect class="cls-4" x="16.45" y="30.48" width="119.06" height="79.37" rx="21.26"/><rect class="cls-5" x="16.45" y="30.48" width="119.06" height="79.37" rx="21.26"/></g><text class="cls-6" transform="translate(26.7 67.93)">休息中</text><text class="cls-7" transform="translate(59.91 95.01)">closed</text><polygon class="cls-8" points="20.36 94.89 15.75 94.36 12.42 97.58 11.83 93.34 7.66 91.61 11.9 89.53 12.66 85.23 15.87 88.18 20.5 87.26 18.25 91.17 20.36 94.89"/><polygon class="cls-9" points="31.93 104.67 27.33 104.14 24 107.36 23.4 103.12 19.24 101.39 23.48 99.31 24.23 95.01 27.44 97.96 32.08 97.04 29.82 100.95 31.93 104.67"/><polygon class="cls-4" points="137.67 114.13 133.07 113.59 129.74 116.82 129.15 112.58 124.98 110.85 129.22 108.76 129.97 104.47 133.19 107.42 137.82 106.49 135.56 110.4 137.67 114.13"/></svg>