<svg id="图层_21" data-name="图层 21" xmlns="http://www.w3.org/2000/svg" viewBox="0 0 13.04 11.03"><defs><style>.cls-1{fill:#f5ec3b;stroke:#e15563;stroke-miterlimit:10;}</style></defs><title>flower2</title><path class="cls-1" d="M262.82,368.6a2.11,2.11,0,0,1,3-.25l1.8,1.32-1.16,1.57a2.11,2.11,0,0,1-2.95.24A2.09,2.09,0,0,1,262.82,368.6Z" transform="translate(-261.98 -363.98)"/><path class="cls-1" d="M268.24,364.94a2.11,2.11,0,0,1,.69,2.88l-1.13,1.58L266,368.11a2,2,0,1,1,2.26-3.17Z" transform="translate(-261.98 -363.98)"/><path class="cls-1" d="M272.88,370.72a2.11,2.11,0,0,1-2.95.27l-1.82-1.31,1.14-1.58a2.12,2.12,0,0,1,3-.26A2.1,2.1,0,0,1,272.88,370.72Z" transform="translate(-261.98 -363.98)"/><path class="cls-1" d="M273,366.14a2.12,2.12,0,0,1-1.45,2.59l-2.1.76-.65-1.84a2.25,2.25,0,0,1,4.2-1.51Z" transform="translate(-261.98 -363.98)"/><path class="cls-1" d="M273,372.68a2.1,2.1,0,0,1-2.77-1l-.68-1.82,2.09-.78a2,2,0,1,1,1.36,3.64Z" transform="translate(-261.98 -363.98)"/><path class="cls-1" d="M265.62,373.29A2.1,2.1,0,0,1,267,370.7l2.1-.77.67,1.82a2.25,2.25,0,0,1-4.19,1.54Z" transform="translate(-261.98 -363.98)"/></svg>