<svg id="图层_1" data-name="图层 1" xmlns="http://www.w3.org/2000/svg" viewBox="0 0 83.65 89.42"><defs><style>.cls-1{fill:#f5de4d;opacity:0.83;}.cls-2,.cls-3,.cls-4,.cls-7{fill:none;}.cls-2,.cls-3,.cls-4{stroke:#de6a3a;stroke-width:2px;}.cls-10,.cls-2,.cls-3,.cls-4,.cls-8,.cls-9{stroke-miterlimit:10;}.cls-3{stroke-dasharray:15.78 15.78;}.cls-4{stroke-dasharray:21.95 21.95;}.cls-5{fill:#ecd8ba;}.cls-10,.cls-6,.cls-9{fill:#fff;}.cls-7{stroke:#aa6f6c;stroke-linecap:round;stroke-linejoin:round;}.cls-8,.cls-9{font-size:8.44px;font-family:YouYuan;}.cls-8{fill:#ef8047;stroke:#ef8047;}.cls-10,.cls-9{stroke:#fff;}.cls-9{stroke-width:0.5px;}</style></defs><title>logo2</title><path class="cls-1" d="M80.76,89.28l-64.23-.75c-3.82,0-6.19-4.66-5.32-10.08l9.14-56.9a5.84,5.84,0,0,1,5.54-5l9,.1v1.52A6.28,6.28,0,0,0,41,24.44l13.83.2a5.94,5.94,0,0,0,6-6.12V17l9,.11a6.24,6.24,0,0,1,5.66,5.12L85.85,79.35C86.84,84.76,84.58,89.33,80.76,89.28Z" transform="translate(-3.53 -0.87)"/><path class="cls-2" d="M80.29,89.28H10.42c-4.16,0-6.68-4.86-5.67-10.6L15.4,18.32A6.48,6.48,0,0,1,21.49,13h9.79v1.61a6.56,6.56,0,0,0,6.55,6.56l15,0a6.56,6.56,0,0,0,6.56-6.55V13h9.8a6.52,6.52,0,0,1,6.09,5.34L86,78.7C87,84.42,84.45,89.28,80.29,89.28Z" transform="translate(-3.53 -0.87)"/><path class="cls-2" d="M28.74,18.9H32.9A6.54,6.54,0,0,0,36.41,21" transform="translate(-3.53 -0.87)"/><line class="cls-3" x1="38.84" y1="20.29" x2="47.8" y2="20.29"/><path class="cls-2" d="M54.3,21a6.62,6.62,0,0,0,3.51-2.09H62" transform="translate(-3.53 -0.87)"/><path class="cls-4" d="M69.59,21a5.57,5.57,0,0,1,1.07,2.39l9,51c.86,4.85-1.27,9-4.77,9h-59c-3.51,0-5.63-4.11-4.78-9l9-51a5.58,5.58,0,0,1,4.54-4.47" transform="translate(-3.53 -0.87)"/><path class="cls-2" d="M59.42,8.44V13H31.28V8.42a6.55,6.55,0,0,1,6.55-6.55h15A6.56,6.56,0,0,1,59.42,8.44Z" transform="translate(-3.53 -0.87)"/><path class="cls-2" d="M59.42,13v1.62a6.56,6.56,0,0,1-6.54,6.57h-15a6.55,6.55,0,0,1-6.55-6.55V13Z" transform="translate(-3.53 -0.87)"/><path class="cls-2" d="M55,11.52A6,6,0,0,1,54.84,13h-19a6.39,6.39,0,0,1-.17-1.45A6.54,6.54,0,0,1,42.23,5h6.22A6.54,6.54,0,0,1,55,11.51Z" transform="translate(-3.53 -0.87)"/><polygon class="cls-5" points="61.37 65.11 63.41 77.07 72.05 75.6 70.02 63.65 64.72 58.64 61.37 65.11"/><polygon class="cls-6" points="62.84 66.74 66.18 60.26 70.07 63.93 70.02 63.65 64.72 58.64 61.37 65.11 63.41 77.07 64.56 76.87 62.84 66.74"/><polygon class="cls-7" points="61.37 65.11 63.41 77.07 72.05 75.6 70.02 63.65 64.72 58.64 61.37 65.11"/><ellipse class="cls-7" cx="68.91" cy="63.39" rx="1.31" ry="1.52" transform="translate(-13.18 11.58) rotate(-9.65)"/><polygon class="cls-5" points="61.37 65.11 63.41 77.07 72.05 75.6 70.02 63.65 64.72 58.64 61.37 65.11"/><polygon class="cls-6" points="62.84 66.74 66.18 60.26 70.07 63.93 70.02 63.65 64.72 58.64 61.37 65.11 63.41 77.07 64.56 76.87 62.84 66.74"/><polygon class="cls-7" points="61.37 65.11 63.41 77.07 72.05 75.6 70.02 63.65 64.72 58.64 61.37 65.11"/><ellipse class="cls-7" cx="68.91" cy="63.39" rx="1.31" ry="1.52" transform="translate(-13.18 11.58) rotate(-9.65)"/><text class="cls-8" transform="translate(29.04 53.67)">二手集市</text><text class="cls-8" transform="translate(23.78 40.77)">校园</text><text class="cls-9" transform="translate(30.48 53.67)">二手集市</text><text class="cls-9" transform="translate(25.17 40.77)">校园</text><text x="-3.53" y="-0.87"/><polygon class="cls-10" points="24.98 61.38 22.94 60.53 21.09 61.72 21.27 59.52 19.57 58.12 21.71 57.62 22.52 55.56 23.66 57.45 25.86 57.58 24.42 59.25 24.98 61.38"/></svg>