<?xml version="1.0" encoding="utf-8"?>
<!-- Generator: Adobe Illustrator 24.0.1, SVG Export Plug-In . SVG Version: 6.00 Build 0)  -->
<svg version="1.1" id="图层_1" xmlns="http://www.w3.org/2000/svg" xmlns:xlink="http://www.w3.org/1999/xlink" x="0px" y="0px"
	 viewBox="0 0 90.71 90.71" style="enable-background:new 0 0 90.71 90.71;" xml:space="preserve">
<style type="text/css">
	.st0{opacity:0.83;fill:#F19996;}
	.st1{fill:none;stroke:#A66D6A;stroke-width:2;stroke-miterlimit:10;}
	.st2{fill:none;stroke:#A66D6A;stroke-width:2;stroke-miterlimit:10;stroke-dasharray:15.78,15.78;}
	.st3{fill:none;stroke:#A66D6A;stroke-width:2;stroke-miterlimit:10;stroke-dasharray:21.95,21.95;}
	.st4{fill:#ECD8BA;}
	.st5{fill:#FFFFFF;}
	.st6{fill:none;stroke:#AA6F6C;stroke-linecap:round;stroke-linejoin:round;stroke-miterlimit:10;}
	.st7{fill:#EAD053;stroke:#E15563;stroke-miterlimit:10;}
	.st8{font-family:'YouYuan';}
	.st9{font-size:8.4384px;}
	.st10{fill:#FFFFFF;stroke:#FFFFFF;stroke-width:0.5;stroke-miterlimit:10;}
	.st11{fill:none;}
	.st12{fill:#FFFFFF;stroke:#FFFFFF;stroke-miterlimit:10;}
</style>
<path class="st0" d="M80.76,89.28l-64.23-0.75c-3.82-0.04-6.19-4.67-5.32-10.08l9.14-56.9c0.44-2.83,2.92-5.02,5.54-4.99l9,0.1
	l0.02,1.52c0.04,3.42,2.77,6.22,6.09,6.26l13.83,0.2c3.33,0.04,5.99-2.7,5.95-6.12l-0.01-1.52l9.01,0.11
	c2.59,0.04,5.13,2.28,5.65,5.12l10.43,57.13C86.84,84.76,84.58,89.33,80.76,89.28z"/>
<g>
	<path class="st1" d="M80.29,89.28l-69.87,0c-4.16,0-6.67-4.87-5.66-10.61L15.4,18.32c0.51-3.01,3.24-5.35,6.09-5.35l9.79-0.01
		l0,1.61c0,3.62,2.93,6.55,6.55,6.55l15.04,0.04c3.62,0,6.55-2.94,6.55-6.56l0.01-1.61l9.8,0c2.82,0.01,5.56,2.35,6.09,5.35
		L85.96,78.7C86.96,84.42,84.45,89.28,80.29,89.28z"/>
	<path class="st1" d="M28.74,18.9l4.16,0c0.92,1.06,2.15,1.79,3.51,2.1"/>
	<line class="st2" x1="42.37" y1="21.15" x2="51.33" y2="21.15"/>
	<path class="st1" d="M54.3,21c1.36-0.31,2.6-1.04,3.51-2.09l4.16,0"/>
	<path class="st3" d="M69.59,21.03c0.54,0.7,0.91,1.52,1.07,2.39l8.99,50.98c0.86,4.85-1.27,8.96-4.77,8.96l-59.03,0
		c-3.51,0-5.63-4.11-4.78-8.96l8.99-50.98c0.42-2.3,2.23-4.09,4.54-4.48"/>
	<path class="st1" d="M59.42,8.44l0,4.54l-28.14-0.01l0-4.54c0-3.62,2.93-6.55,6.55-6.56l15.04,0.01
		C56.49,1.88,59.42,4.82,59.42,8.44z"/>
	<path class="st1" d="M59.42,12.97l-0.01,1.61c0.01,3.62-2.92,6.57-6.54,6.58c0,0,0,0-0.01,0l-15.04-0.01
		c-3.62,0-6.55-2.94-6.55-6.55l0-1.61L59.42,12.97z"/>
	<path class="st1" d="M55.01,11.52c0,0.49-0.06,0.98-0.17,1.45l-18.97-0.01c-0.11-0.48-0.17-0.97-0.17-1.46
		c-0.01-3.61,2.92-6.54,6.53-6.55c0.01,0,0.02,0,0.02,0l6.2,0c3.62,0,6.56,2.93,6.56,6.55C55.01,11.52,55.01,11.52,55.01,11.52z"/>
</g>
<g>
	<polygon class="st4" points="64.9,65.98 66.94,77.94 75.58,76.47 73.55,64.51 68.25,59.51 	"/>
	<polygon class="st5" points="66.37,67.6 69.71,61.13 73.6,64.8 73.55,64.51 68.25,59.51 64.9,65.98 66.94,77.94 68.09,77.74 	"/>
	<polygon class="st6" points="64.9,65.98 66.94,77.94 75.58,76.47 73.55,64.51 68.25,59.51 	"/>
	
		<ellipse transform="matrix(0.9859 -0.1676 0.1676 0.9859 -9.6491 12.4462)" class="st6" cx="68.91" cy="63.39" rx="1.31" ry="1.52"/>
	<polygon class="st4" points="64.9,65.98 66.94,77.94 75.58,76.47 73.55,64.51 68.25,59.51 	"/>
	<polygon class="st5" points="66.37,67.6 69.71,61.13 73.6,64.8 73.55,64.51 68.25,59.51 64.9,65.98 66.94,77.94 68.09,77.74 	"/>
	<polygon class="st6" points="64.9,65.98 66.94,77.94 75.58,76.47 73.55,64.51 68.25,59.51 	"/>
	
		<ellipse transform="matrix(0.9859 -0.1676 0.1676 0.9859 -9.6491 12.4462)" class="st6" cx="68.91" cy="63.39" rx="1.31" ry="1.52"/>
</g>
<text transform="matrix(1 0 0 1 32.5744 54.5399)" class="st7 st8 st9">二手集市</text>
<text transform="matrix(1 0 0 1 27.3146 41.6356)" class="st7 st8 st9">校园</text>
<text transform="matrix(1 0 0 1 34.0134 54.5399)" class="st10 st8 st9">二手集市</text>
<text transform="matrix(1 0 0 1 28.696 41.6356)" class="st10 st8 st9">校园</text>
<polygon class="st11" points="56.69,41.64 60.79,41.64 60.79,41.64 56.69,41.64 "/>
<polygon class="st12" points="28.51,62.25 26.47,61.39 24.62,62.58 24.8,60.39 23.1,58.99 25.24,58.49 26.05,56.43 27.19,58.32 
	29.39,58.45 27.95,60.12 "/>
</svg>
