<svg id="图层_17" data-name="图层 17" xmlns="http://www.w3.org/2000/svg" viewBox="0 0 90.02 89.62"><defs><style>.cls-1,.cls-2{fill:#ffda71;}.cls-1{opacity:0.5;}.cls-2{opacity:0.56;}.cls-3{fill:none;stroke:#f53;stroke-miterlimit:10;stroke-width:3px;}</style></defs><title>217</title><rect class="cls-1" x="53.02" y="66" width="31" height="21" rx="10.5"/><rect class="cls-1" x="27.02" y="66" width="31" height="21" rx="10.5"/><ellipse class="cls-2" cx="60.52" cy="39.5" rx="28.5" ry="29.5"/><circle class="cls-3" cx="54.52" cy="82.5" r="3"/><path class="cls-3" d="M311.5,501.5a34,34,0,0,1-31.64,33.92c-.78.05-1.57.08-2.36.08a33.85,33.85,0,0,1-18.88-5.72l-.36-.24a34,34,0,1,1,53.24-28Z" transform="translate(-222.98 -466)"/><path class="cls-3" d="M254.61,526.64a28.67,28.67,0,0,0-1.84,3.42,29.47,29.47,0,0,1-15.37-5.18,30,30,0,0,1-3.19-2.53,29.75,29.75,0,0,1,27.29-50.86,34,34,0,0,0-6.89,55.15Z" transform="translate(-222.98 -466)"/><path class="cls-3" d="M300.39,526.64a33.85,33.85,0,0,1-20.53,8.78c-.78.05-1.57.08-2.36.08a33.85,33.85,0,0,1-18.88-5.72l-.36-.24a33.9,33.9,0,0,1-3.65-2.9,28.67,28.67,0,0,0-1.84,3.42,85.7,85.7,0,0,0-5,15.94c-.2,1-.31,1.5-.31,1.5,21.44,9.2,41.68,8.45,61,0C308.5,547.5,304.77,533,300.39,526.64ZM277.5,551.5a3,3,0,1,1,3-3A3,3,0,0,1,277.5,551.5Zm2.95-10.5a3,3,0,1,1,.05-.5A2.07,2.07,0,0,1,280.45,541Z" transform="translate(-222.98 -466)"/><path class="cls-3" d="M280.5,540.5a2.07,2.07,0,0,1-.05.5,3,3,0,1,1,.05-.5Z" transform="translate(-222.98 -466)"/><path class="cls-3" d="M234.21,522.35c-3.9,6.06-6.22,18.26-6.22,18.26A70.07,70.07,0,0,0,247.81,546" transform="translate(-222.98 -466)"/></svg>