<svg id="图层_9" data-name="图层 9" xmlns="http://www.w3.org/2000/svg" viewBox="0 0 106.77 112.46"><defs><style>.cls-1{fill:none;stroke:#ec7e68;stroke-miterlimit:10;}.cls-2{fill:#ec6f6f;opacity:0.56;}.cls-3,.cls-4{font-size:41.42px;font-family:BernardMT-Condensed, Bernard MT Condensed;}.cls-3{fill:#eb5b18;}.cls-4{fill:#f3eb33;}</style></defs><title>上新</title><polygon class="cls-1" points="99.99 84.1 66.51 79.57 43.8 104.58 37.76 71.34 6.95 57.46 36.7 41.45 40.38 7.86 64.8 31.21 97.88 24.33 83.22 54.77 99.99 84.1"/><polygon class="cls-2" points="97.51 81.01 64.17 76.49 41.54 101.4 35.53 68.3 4.85 54.48 34.48 38.53 38.14 5.08 62.46 28.33 95.41 21.47 80.81 51.79 97.51 81.01"/><polygon class="cls-1" points="105.83 88.41 68.18 83.01 42.84 111.36 35.82 73.42 1.11 57.39 34.43 39.34 38.32 1.08 65.93 27.86 103.04 20.25 86.79 54.85 105.83 88.41"/><text class="cls-3" transform="translate(34.4 78.11) rotate(-12.16) scale(0.93 1)">NEW</text><text class="cls-4" transform="translate(30.96 78.11) rotate(-12.16) scale(0.93 1)">NEW</text></svg>