<svg id="自行车" xmlns="http://www.w3.org/2000/svg" viewBox="0 0 176.72 134.85"><defs><style>.cls-1,.cls-3,.cls-4{fill:none;}.cls-1{stroke:#94d2d9;stroke-width:3px;}.cls-1,.cls-3{stroke-miterlimit:10;}.cls-2{fill:#94d2d9;opacity:0.68;}.cls-3{stroke:#564c9d;}.cls-3,.cls-4{stroke-width:2px;}.cls-4{stroke:#e6207e;stroke-linecap:round;stroke-linejoin:round;stroke-dasharray:8;}</style></defs><title>交通工具</title><polyline class="cls-1" points="133.01 36.4 172.89 133.35 8.03 133.35 119.2 2.84 133.01 36.4"/><polyline class="cls-2" points="104.85 59.05 135.75 133.35 8.03 133.35 94.16 33.34 104.85 59.05"/><path class="cls-3" d="M183.91,118.42a33.7,33.7,0,1,1-6.73-23.7l-31,17.91a3.09,3.09,0,0,0,1.77,5.76,2.6,2.6,0,0,0,.4,0Z" transform="translate(-115.66 -15.15)"/><path class="cls-3" d="M291.38,115.15a33.71,33.71,0,1,1-52.7-27.85l17,33.24a3.36,3.36,0,0,0,4.86,1.47l.16-.11a4.32,4.32,0,0,0,1.3-5.48L245.31,83.79a33.71,33.71,0,0,1,46.07,31.36Z" transform="translate(-115.66 -15.15)"/><path class="cls-3" d="M217.13,115.14a11.69,11.69,0,0,1-22.92,3.28h12.13a2.63,2.63,0,0,0,1.5-.48,3.07,3.07,0,0,0,.54-.22,3.1,3.1,0,0,0,1.28-4.18l-5.33-10c.36,0,.73,0,1.1,0A11.7,11.7,0,0,1,217.13,115.14Z" transform="translate(-115.66 -15.15)"/><path class="cls-3" d="M260.68,121.9l-.16.11a3.36,3.36,0,0,1-4.86-1.47l-17-33.24-8.26-16.17L197.3,90.25l7,13.25,5.33,10a3.1,3.1,0,0,1-1.28,4.18,3.07,3.07,0,0,1-.54.22,2.63,2.63,0,0,1-1.5.48h-58a2.6,2.6,0,0,1-.4,0,3.09,3.09,0,0,1-1.77-5.76l31-17.91L189,87.88,178.5,68.05l-1.37.67a3.14,3.14,0,0,1-1.39.32,3.21,3.21,0,0,1-1.42-6.1l7.64-3.7a3.14,3.14,0,0,1,1.39-.32,3.21,3.21,0,0,1,1.41,6.1l-.68.33,10.31,19.43L227.6,65.61l-8.78-17.19-8.29,4A3.58,3.58,0,1,1,207.4,46L233.34,33.4a3.58,3.58,0,1,1,3.13,6.45l-10.91,5.29,19.75,38.65L262,116.42A4.32,4.32,0,0,1,260.68,121.9Z" transform="translate(-115.66 -15.15)"/><circle class="cls-4" cx="142.02" cy="100.37" r="27.75"/><circle class="cls-4" cx="34.63" cy="100.37" r="27.75"/></svg>