<svg id="图层_15" data-name="图层 15" xmlns="http://www.w3.org/2000/svg" viewBox="0 0 137.05 91.89"><defs><style>.cls-1{fill:#ececb6;}.cls-2{fill:#b7ddc2;opacity:0.74;}.cls-3,.cls-4,.cls-5,.cls-8,.cls-9{fill:none;}.cls-3,.cls-5{stroke:#094;}.cls-11,.cls-3,.cls-4,.cls-5{stroke-miterlimit:10;}.cls-3{stroke-dasharray:10;}.cls-4{stroke:#b7ddc2;}.cls-4,.cls-5{stroke-width:2px;}.cls-6{fill:#fff;}.cls-7{fill:#efdbbb;}.cls-8,.cls-9{stroke:#aa6f6c;stroke-linecap:round;stroke-linejoin:round;}.cls-9{stroke-dasharray:5;}.cls-10{font-size:15.75px;fill:#aa6f6c;font-family:zihun160hao-tansong;}.cls-11{fill:#f5ec3b;stroke:#e15563;}</style></defs><title>分类详情</title><path class="cls-1" d="M177.49,71.56V112.7a12,12,0,0,1-12,12H60.68c-8.48,0-15.61-3.53-17.66-8.3a.08.08,0,0,0,0,0,12.13,12.13,0,0,1-.56-3.2c.37-6,8.39-10.69,18.24-10.69a28,28,0,0,1,3.21.18A6.64,6.64,0,0,1,64,97c1.55-2.68,5.5-3.61,10.53-2.93A14.29,14.29,0,0,1,85.78,83.15c.15-11,9.67-19.9,21.4-19.9a22.92,22.92,0,0,1,3.44.26,8.82,8.82,0,0,1,4.51-4.72,15.76,15.76,0,1,1,29.22-8.21c0,.24,0,.48,0,.71a14.06,14.06,0,0,1,8-2.49c7.53,0,13.64,5.8,13.64,13,0,.13,0,.27,0,.4a8.17,8.17,0,0,1,2.53-.4C173.48,61.76,177.49,66.15,177.49,71.56Z" transform="translate(-41.44 -33.81)"/><path class="cls-2" d="M177.49,80.28v34.39c0,5.52-5.05,10-11.23,10H68.15c-7.94,0-14.61-3-16.53-6.94,0,0,0,0,0,0a8.92,8.92,0,0,1-.52-2.68c.34-5,7.85-8.93,17.07-8.93a29.25,29.25,0,0,1,3,.15,5,5,0,0,1,.11-4.73c1.45-2.24,5.15-3,9.85-2.45A12.83,12.83,0,0,1,91.64,90c.15-9.21,9.06-16.63,20-16.63a22.81,22.81,0,0,1,3.22.22,7.8,7.8,0,0,1,4.22-4A12.08,12.08,0,0,1,117,62.75c0-7.28,6.6-13.18,14.76-13.18s14.75,5.9,14.75,13.18c0,.2,0,.4,0,.59A14.33,14.33,0,0,1,154,61.26c7,0,12.76,4.85,12.76,10.83,0,.11,0,.23,0,.34a8.43,8.43,0,0,1,2.37-.34A8.29,8.29,0,0,1,177.49,80.28Z" transform="translate(-41.44 -33.81)"/><path class="cls-3" d="M177.49,88v28.4c0,4.56-4.62,8.29-10.28,8.29H77.47c-7.26,0-13.36-2.44-15.12-5.73,0,0,0,0,0,0a7.16,7.16,0,0,1-.48-2.21c.32-4.11,7.19-7.38,15.62-7.38a27.4,27.4,0,0,1,2.75.13,3.8,3.8,0,0,1,.09-3.91c1.33-1.85,4.71-2.49,9-2,1.18-3.91,5-6.9,9.63-7.54.13-7.61,8.28-13.74,18.33-13.74a23.68,23.68,0,0,1,2.94.18,7,7,0,0,1,3.86-3.26,9.33,9.33,0,0,1-2-5.66c0-6,6-10.89,13.5-10.89s13.49,4.87,13.49,10.89c0,.16,0,.33,0,.49A14,14,0,0,1,156,72.3c6.45,0,11.68,4,11.68,8.94a2.62,2.62,0,0,1,0,.28,8.54,8.54,0,0,1,2.17-.28C174.06,81.24,177.49,84.28,177.49,88Z" transform="translate(-41.44 -33.81)"/><path class="cls-4" d="M177.49,71.56V112.7a12,12,0,0,1-12,12H60.68c-8.48,0-15.61-3.53-17.66-8.3a.08.08,0,0,0,0,0,12.13,12.13,0,0,1-.56-3.2c.37-6,8.39-10.69,18.24-10.69a28,28,0,0,1,3.21.18A6.64,6.64,0,0,1,64,97c1.55-2.68,5.5-3.61,10.53-2.93A14.29,14.29,0,0,1,85.78,83.15c.15-11,9.67-19.9,21.4-19.9a22.92,22.92,0,0,1,3.44.26,8.82,8.82,0,0,1,4.51-4.72,15.76,15.76,0,1,1,29.22-8.21c0,.24,0,.48,0,.71a14.06,14.06,0,0,1,8-2.49c7.53,0,13.64,5.8,13.64,13,0,.13,0,.27,0,.4a8.17,8.17,0,0,1,2.53-.4C173.48,61.76,177.49,66.15,177.49,71.56Z" transform="translate(-41.44 -33.81)"/><path class="cls-5" d="M177.49,80.28v34.39c0,5.52-5.05,10-11.23,10H68.15c-7.94,0-14.61-3-16.53-6.94,0,0,0,0,0,0a8.92,8.92,0,0,1-.52-2.68c.34-5,7.85-8.93,17.07-8.93a29.25,29.25,0,0,1,3,.15,5,5,0,0,1,.11-4.73c1.45-2.24,5.15-3,9.85-2.45A12.83,12.83,0,0,1,91.64,90c.15-9.21,9.06-16.63,20-16.63a22.81,22.81,0,0,1,3.22.22,7.8,7.8,0,0,1,4.22-4A12.08,12.08,0,0,1,117,62.75c0-7.28,6.6-13.18,14.76-13.18s14.75,5.9,14.75,13.18c0,.2,0,.4,0,.59A14.33,14.33,0,0,1,154,61.26c7,0,12.76,4.85,12.76,10.83,0,.11,0,.23,0,.34a8.43,8.43,0,0,1,2.37-.34A8.29,8.29,0,0,1,177.49,80.28Z" transform="translate(-41.44 -33.81)"/><path class="cls-6" d="M122.54,106.28v9.86a8.56,8.56,0,0,1-17.12,0v-9.86Z" transform="translate(-41.44 -33.81)"/><rect class="cls-6" x="32.03" y="16.37" width="81.02" height="56.1" rx="12"/><rect class="cls-7" x="71.59" y="70.77" width="9.51" height="17.38" rx="4.76"/><path class="cls-7" d="M153.81,64.22V94.83a11.24,11.24,0,0,1-11,11.45H90.78a11.24,11.24,0,0,1-11-11.45V64.22a11.24,11.24,0,0,1,11-11.44h52.07A11.24,11.24,0,0,1,153.81,64.22Z" transform="translate(-41.44 -33.81)"/><rect class="cls-8" x="32.03" y="16.37" width="81.02" height="56.1" rx="12"/><rect class="cls-9" x="38.43" y="20.8" width="68.21" height="47.24" rx="12"/><path class="cls-8" d="M122.54,106.28v9.86a8.56,8.56,0,0,1-17.12,0v-9.86Z" transform="translate(-41.44 -33.81)"/><text class="cls-10" transform="translate(44.42 40.28) scale(1.79 1)">分类<tspan x="0" y="18.9">详情</tspan></text><path class="cls-11" d="M144.36,117.94a2.12,2.12,0,0,1,3-.24l1.8,1.32L148,120.58a2.26,2.26,0,0,1-3.61-2.64Z" transform="translate(-41.44 -33.81)"/><path class="cls-11" d="M149.78,114.29a2.1,2.1,0,0,1,.69,2.88l-1.13,1.58-1.82-1.3a2,2,0,1,1,2.26-3.16Z" transform="translate(-41.44 -33.81)"/><path class="cls-11" d="M154.42,120.06a2.11,2.11,0,0,1-2.95.27l-1.81-1.3,1.14-1.58a2.25,2.25,0,0,1,3.62,2.61Z" transform="translate(-41.44 -33.81)"/><path class="cls-11" d="M79.43,111.73a2.11,2.11,0,0,1,2.95-.24l1.8,1.32L83,114.37a2.12,2.12,0,0,1-3,.24A2.09,2.09,0,0,1,79.43,111.73Z" transform="translate(-41.44 -33.81)"/><path class="cls-11" d="M84.84,108.08a2.09,2.09,0,0,1,.69,2.88l-1.13,1.58-1.81-1.3a2,2,0,1,1,2.25-3.16Z" transform="translate(-41.44 -33.81)"/><path class="cls-11" d="M89.48,113.85a2.11,2.11,0,0,1-3,.27l-1.81-1.31,1.14-1.57a2.25,2.25,0,0,1,3.62,2.61Z" transform="translate(-41.44 -33.81)"/><path class="cls-11" d="M158.31,93.11a2.1,2.1,0,0,1,2.93-.45l1.89,1.19-1,1.64a2.25,2.25,0,0,1-3.77-2.38Z" transform="translate(-41.44 -33.81)"/><path class="cls-11" d="M163.46,89.09a2.1,2.1,0,0,1,.89,2.82l-1,1.66-1.91-1.17a2,2,0,1,1,2-3.31Z" transform="translate(-41.44 -33.81)"/><path class="cls-11" d="M168.49,94.53a2.11,2.11,0,0,1-2.93.47l-1.9-1.18,1-1.65a2.26,2.26,0,0,1,3.8,2.36Z" transform="translate(-41.44 -33.81)"/></svg>