<svg id="家电" xmlns="http://www.w3.org/2000/svg" viewBox="0 0 181.74 169.71"><defs><style>.cls-1,.cls-3,.cls-4,.cls-5,.cls-6{fill:none;stroke-miterlimit:10;}.cls-1{stroke:#71c4b8;stroke-width:3px;}.cls-2{fill:#71c4b8;opacity:0.28;}.cls-3{stroke:#13ae67;}.cls-3,.cls-4,.cls-5,.cls-6{stroke-width:2px;}.cls-4,.cls-5,.cls-6{stroke:#ea5251;}.cls-4{stroke-dasharray:15.64 15.64;}.cls-6{stroke-dasharray:15.34 15.34;}</style></defs><title>家电</title><ellipse class="cls-1" cx="88.8" cy="84.85" rx="87.3" ry="83.35"/><ellipse class="cls-2" cx="79.47" cy="92.14" rx="76.06" ry="73.72"/><path class="cls-3" d="M214.61,319.07c-.05.77-.07,1.55-.07,2.33a40.42,40.42,0,0,0,1.15,9.59,39.79,39.79,0,0,0,4.17,10.47h0a38.62,38.62,0,0,0,2.59,4A40.67,40.67,0,0,0,233,355.35a39.12,39.12,0,0,0,4.52,2.54v11.79a18.79,18.79,0,0,1-18.79,18.79H154.6a18.79,18.79,0,0,1-18.79-18.79v-88.3a18.79,18.79,0,0,1,18.79-18.79h64.1a18.79,18.79,0,0,1,18.79,18.79v3.53a40.44,40.44,0,0,0-22.88,34.16Z" transform="translate(-114.74 -230.13)"/><rect class="cls-3" x="36.03" y="45.22" width="71.77" height="22.93" rx="11.46"/><path class="cls-3" d="M295.48,321.4a40.49,40.49,0,0,1-58,36.49,39.12,39.12,0,0,1-4.52-2.54,40.67,40.67,0,0,1-10.52-9.91,38.62,38.62,0,0,1-2.59-4h0A39.79,39.79,0,0,1,215.69,331a40.42,40.42,0,0,1-1.15-9.59c0-.78,0-1.56.07-2.33a40.47,40.47,0,0,1,80.87,2.33Z" transform="translate(-114.74 -230.13)"/><path class="cls-3" d="M233,355.35v15.52a12,12,0,0,1-12,12H152.33a12,12,0,0,1-12-12V315.78a12,12,0,0,1,12-12h66.24a40.25,40.25,0,0,0-4,15.29c-.05.77-.07,1.55-.07,2.33a40.42,40.42,0,0,0,1.15,9.59,39.79,39.79,0,0,0,4.17,10.47h0a38.62,38.62,0,0,0,2.59,4A40.67,40.67,0,0,0,233,355.35Z" transform="translate(-114.74 -230.13)"/><path class="cls-3" d="M215.69,331h-59a6,6,0,0,1,0-11.92h57.88c-.05.77-.07,1.55-.07,2.33A40.42,40.42,0,0,0,215.69,331Z" transform="translate(-114.74 -230.13)"/><path class="cls-3" d="M222.54,346.43a6,6,0,0,1-6,6H156.73a6,6,0,0,1,0-11.92h59.85a6,6,0,0,1,3.28,1h0a38.62,38.62,0,0,0,2.59,4A5.36,5.36,0,0,1,222.54,346.43Z" transform="translate(-114.74 -230.13)"/><rect class="cls-3" x="36.03" y="131.74" width="71.77" height="11.92" rx="5.96"/><path class="cls-3" d="M281,307.82l-18.57,12a7.28,7.28,0,0,0-7.56-4.78l-1.05-21.14a4.14,4.14,0,0,1,6-3.89l20.8,10.67A4.14,4.14,0,0,1,281,307.82Z" transform="translate(-114.74 -230.13)"/><path class="cls-3" d="M249.62,326.45,233,340a4.4,4.4,0,0,1-1.07.64,4.1,4.1,0,0,1-4.08-.59,4,4,0,0,1-1.54-2.6l-3.08-19.09-.64-4a4.14,4.14,0,0,1,3.87-4.79,4,4,0,0,1,1.7.26l21.53,8.21a7.29,7.29,0,0,0,0,8.4Z" transform="translate(-114.74 -230.13)"/><path class="cls-3" d="M280.66,344.73,259.7,355a4.13,4.13,0,0,1-6-4l1.42-21.52a7.3,7.3,0,0,0,7.18-4.55l18.79,12.58A4.14,4.14,0,0,1,280.66,344.73Z" transform="translate(-114.74 -230.13)"/><path class="cls-3" d="M262.39,324.86l-.05.13a7.3,7.3,0,0,1-7.18,4.55,7,7,0,0,1-2.17-.47,7.28,7.28,0,1,1,5.19-13.6,7.31,7.31,0,0,1,4.21,9.39Z" transform="translate(-114.74 -230.13)"/><circle class="cls-4" cx="140.85" cy="91.27" r="34.85"/><line class="cls-5" x1="126.89" y1="134.95" x2="126.89" y2="142.45"/><path class="cls-6" d="M236.56,386.69a20.25,20.25,0,0,1-15.25,6.9H152a20.31,20.31,0,0,1-20.31-20.32V277.79A20.31,20.31,0,0,1,152,257.47h69.32a20.21,20.21,0,0,1,13.42,5.07" transform="translate(-114.74 -230.13)"/><path class="cls-5" d="M239.41,268.56a20.1,20.1,0,0,1,2.11,7.15" transform="translate(-114.74 -230.13)"/></svg>