<svg id="手推车" xmlns="http://www.w3.org/2000/svg" viewBox="0 0 89.52 69.86"><defs><style>.cls-1{fill:#fff;opacity:0.4;}.cls-2,.cls-3{fill:none;stroke:#c98475;stroke-miterlimit:10;}.cls-3{stroke-dasharray:4;}</style></defs><title>手推车</title><circle class="cls-1" cx="54.17" cy="62.67" r="5.6"/><circle class="cls-1" cx="15.74" cy="60.78" r="9.08"/><path class="cls-1" d="M168.21,122.21l44.73,6.47a5.67,5.67,0,0,0,4.93-2.23l22.28-31.17c2.47-3.46,2.41-6.81-.31-7.25L166.32,76c-2.89-.47-4.94,2.65-4.59,6.69l3.08,36A4.08,4.08,0,0,0,168.21,122.21Z" transform="translate(-158.49 -75.64)"/><path class="cls-2" d="M159.52,79.78,159,85.44a4,4,0,0,0,3.63,4.34l7.93.71-.16-2.08L170,83.78a10,10,0,0,1,.13-2.6c.49-2.55,2.05-4.27,4.07-4.09l-10.37-.93A4,4,0,0,0,159.52,79.78Z" transform="translate(-158.49 -75.64)"/><path class="cls-3" d="M181.52,120.07l35.75,5.23a4.45,4.45,0,0,0,3.94-1.84l17.88-25.7c2-2.85,1.95-5.61-.22-6L180.1,82.08c-2.31-.38-3.95,2.19-3.69,5.52l2.39,29.6A3.29,3.29,0,0,0,181.52,120.07Z" transform="translate(-158.49 -75.64)"/><circle class="cls-2" cx="19.75" cy="58.55" r="8.38"/><circle class="cls-2" cx="56.4" cy="61.37" r="5.28"/><circle class="cls-2" cx="56.4" cy="61.37" r="1.3"/><circle class="cls-2" cx="19.74" cy="58.61" r="2.17"/><path class="cls-2" d="M170,83.78l.38,4.63.16,2.08,2.34,29.06A4,4,0,0,0,176.2,123l43.19,6.32a5.41,5.41,0,0,0,4.77-2.23l21.61-31c2.39-3.45,2.34-6.77-.28-7.21L176.14,77.39l-1.65-.27-.26,0c-2-.18-3.58,1.54-4.07,4.09A10,10,0,0,0,170,83.78Z" transform="translate(-158.49 -75.64)"/><path class="cls-2" d="M163.48,83l-.22,2.45A2.37,2.37,0,0,0,165.4,88l5,.45L170,83.78a10,10,0,0,1,.13-2.6l-4.11-.37A2.37,2.37,0,0,0,163.48,83Z" transform="translate(-158.49 -75.64)"/></svg>