<svg id="图层_10" data-name="图层 10" xmlns="http://www.w3.org/2000/svg" viewBox="0 0 34.31 34.82"><defs><style>.cls-1{fill:#f4f085;opacity:0.36;}.cls-2,.cls-3{fill:none;stroke:#e83b11;stroke-linecap:round;stroke-linejoin:round;}.cls-3{stroke-dasharray:6.55 6.55;}</style></defs><title>搜索</title><path class="cls-1" d="M70.85,139.22h0c-.54.56-1.57.36-2.31-.44l-4.62-5.07a1.91,1.91,0,0,1-.36-2.47h0c.53-.55,1.57-.35,2.3.45l4.63,5.07A1.91,1.91,0,0,1,70.85,139.22Z" transform="translate(-39.27 -104.95)"/><path class="cls-1" d="M65.91,120.56A13.73,13.73,0,0,1,63.73,128a12.62,12.62,0,0,1-3.51,3.62,11.9,11.9,0,0,1-6.86,2.17c-6.94,0-12.56-5.94-12.56-13.27s5.62-13.27,12.56-13.27S65.91,113.24,65.91,120.56Z" transform="translate(-39.27 -104.95)"/><path class="cls-2" d="M69.12,120.13a14.68,14.68,0,1,1-14.67-14.68A14.63,14.63,0,0,1,69.12,120.13Z" transform="translate(-39.27 -104.95)"/><path class="cls-2" d="M72.18,138.49a2.88,2.88,0,0,1-4.05-.11l-5.66-6a14.63,14.63,0,0,0,4.1-4l5.72,6A2.86,2.86,0,0,1,72.18,138.49Z" transform="translate(-39.27 -104.95)"/><circle class="cls-3" cx="15.17" cy="15.18" r="10.43"/></svg>