<svg id="图层_16" data-name="图层 16" xmlns="http://www.w3.org/2000/svg" viewBox="0 0 57.48 377.74"><defs><style>.cls-1{fill:#e5d9c8;}.cls-2{fill:#b7ddc2;}.cls-3{fill:#b8e0e0;}.cls-4{fill:#ececb6;}.cls-5{fill:#edc9b6;}.cls-6{fill:none;stroke:#e15563;stroke-miterlimit:10;}</style></defs><title>条</title><path class="cls-1" d="M132.28,337.08V354c0,16-12.74,29-28.29,29s-28.19-13-28.19-29v-78.5Z" transform="translate(-75.3 -5.73)"/><polygon class="cls-2" points="56.98 260.55 56.98 331.35 0.5 269.72 0.5 198.92 56.98 260.55"/><polygon class="cls-3" points="56.98 189.74 56.98 260.55 0.5 198.92 0.5 128.12 56.98 189.74"/><polygon class="cls-4" points="56.98 118.94 56.98 189.74 0.5 128.12 0.5 57.32 56.98 118.94"/><path class="cls-5" d="M132.28,35.25v89.42L75.8,63.05V35.25c0-16,12.65-29,28.19-29a27.83,27.83,0,0,1,20,8.48A29.57,29.57,0,0,1,132.28,35.25Z" transform="translate(-75.3 -5.73)"/><path class="cls-6" d="M75.8,63.05V35.25c0-16,12.65-29,28.19-29a27.83,27.83,0,0,1,20,8.48,29.57,29.57,0,0,1,8.33,20.54v89.42" transform="translate(-75.3 -5.73)"/><polyline class="cls-6" points="0.5 128.12 0.5 57.32 56.98 118.94 56.98 189.74"/><polyline class="cls-6" points="0.5 198.92 0.5 128.12 56.98 189.74 56.98 260.55"/><polyline class="cls-6" points="0.5 269.72 0.5 198.92 56.98 260.55 56.98 331.35"/><path class="cls-6" d="M132.28,337.08V354c0,16-12.74,29-28.29,29s-28.19-13-28.19-29v-78.5Z" transform="translate(-75.3 -5.73)"/></svg>