<svg id="图层_14" data-name="图层 14" xmlns="http://www.w3.org/2000/svg" viewBox="0 0 92.88 44.94"><defs><style>.cls-1{fill:#f2f2a5;stroke:#f2f2a5;}.cls-1,.cls-4,.cls-5{stroke-miterlimit:10;}.cls-2{fill:#b7ddc2;}.cls-3,.cls-4,.cls-5{fill:none;}.cls-3,.cls-5{stroke:#094;}.cls-3{stroke-linecap:round;stroke-linejoin:round;stroke-dasharray:8;}.cls-4{stroke:#b7ddc2;}</style></defs><title>草</title><path class="cls-1" d="M137.22,82.13V101a12,12,0,0,1-12,12H65.14a11.9,11.9,0,0,1-3.45-.51,15.35,15.35,0,0,1-5.19.88c-6.16,0-11.16-3.42-11.16-7.65,0-3.51,3.46-6.47,8.18-7.36,1-3.92,3.82-6.76,7.19-6.76a6.12,6.12,0,0,1,1.14.11h0c1.63-5.12,7.44-8.9,14.36-8.9a17.65,17.65,0,0,1,5.47.84,7.64,7.64,0,0,1,7-5.43,7,7,0,0,1,5.17,2.37,4.35,4.35,0,0,1,3.62-2.37,4.24,4.24,0,0,1,3.5,2.19,16.19,16.19,0,0,1,12,.73,18.89,18.89,0,0,1,4.59-3.51c.77-4.68,4.27-8.2,8.47-8.2a8.4,8.4,0,0,1,7.28,4.7A9.74,9.74,0,0,1,137.22,82.13Z" transform="translate(-44.84 -68.94)"/><path class="cls-2" d="M137.22,85.93v16.59c0,5.79-5.2,10.54-11.56,10.54H67.78a12.49,12.49,0,0,1-3.32-.45,16.18,16.18,0,0,1-5,.77c-5.94,0-10.75-3-10.75-6.72,0-3.08,3.33-5.68,7.88-6.46.93-3.45,3.68-5.94,6.92-5.94a6.52,6.52,0,0,1,1.1.1h0c1.57-4.5,7.17-7.82,13.84-7.82a18.57,18.57,0,0,1,5.26.74,7.29,7.29,0,0,1,6.74-4.77,7,7,0,0,1,5,2.08,4.25,4.25,0,0,1,3.49-2.08,4.16,4.16,0,0,1,3.37,1.92,16.92,16.92,0,0,1,4.87-.71,16.72,16.72,0,0,1,6.64,1.35A18.15,18.15,0,0,1,118.23,82a8.48,8.48,0,0,1,8.16-7.2,8.19,8.19,0,0,1,7,4.13A8.31,8.31,0,0,1,137.22,85.93Z" transform="translate(-44.84 -68.94)"/><path class="cls-3" d="M137.22,89.63V104c0,5-5,9.12-11,9.12H70.9a13.11,13.11,0,0,1-3.17-.39,16.73,16.73,0,0,1-4.78.67c-5.67,0-10.27-2.6-10.27-5.81,0-2.67,3.19-4.92,7.53-5.6a7,7,0,0,1,6.61-5.13,7.2,7.2,0,0,1,1.05.08h0c1.5-3.89,6.85-6.76,13.21-6.76a19.82,19.82,0,0,1,5,.63,7,7,0,0,1,6.43-4.12,7.1,7.1,0,0,1,4.76,1.8,4.13,4.13,0,0,1,3.33-1.8,4.08,4.08,0,0,1,3.22,1.66,17.58,17.58,0,0,1,4.65-.61,17.23,17.23,0,0,1,6.34,1.17,17.45,17.45,0,0,1,4.22-2.67,7.88,7.88,0,0,1,7.8-6.23,8,8,0,0,1,6.7,3.57A7.07,7.07,0,0,1,137.22,89.63Z" transform="translate(-44.84 -68.94)"/><path class="cls-4" d="M137.22,82.13V101a12,12,0,0,1-12,12H65.14a11.9,11.9,0,0,1-3.45-.51,15.35,15.35,0,0,1-5.19.88c-6.16,0-11.16-3.42-11.16-7.65,0-3.51,3.46-6.47,8.18-7.36,1-3.92,3.82-6.76,7.19-6.76a6.12,6.12,0,0,1,1.14.11h0c1.63-5.12,7.44-8.9,14.36-8.9a17.65,17.65,0,0,1,5.47.84,7.64,7.64,0,0,1,7-5.43,7,7,0,0,1,5.17,2.37,4.35,4.35,0,0,1,3.62-2.37,4.24,4.24,0,0,1,3.5,2.19,16.19,16.19,0,0,1,12,.73,18.89,18.89,0,0,1,4.59-3.51c.77-4.68,4.27-8.2,8.47-8.2a8.4,8.4,0,0,1,7.28,4.7A9.74,9.74,0,0,1,137.22,82.13Z" transform="translate(-44.84 -68.94)"/><path class="cls-5" d="M137.22,85.93v16.59c0,5.79-5.2,10.54-11.56,10.54H67.78a12.49,12.49,0,0,1-3.32-.45,16.18,16.18,0,0,1-5,.77c-5.94,0-10.75-3-10.75-6.72,0-3.08,3.33-5.68,7.88-6.46.93-3.45,3.68-5.94,6.92-5.94a6.52,6.52,0,0,1,1.1.1h0c1.57-4.5,7.17-7.82,13.84-7.82a18.57,18.57,0,0,1,5.26.74,7.29,7.29,0,0,1,6.74-4.77,7,7,0,0,1,5,2.08,4.25,4.25,0,0,1,3.49-2.08,4.16,4.16,0,0,1,3.37,1.92,16.92,16.92,0,0,1,4.87-.71,16.72,16.72,0,0,1,6.64,1.35A18.15,18.15,0,0,1,118.23,82a8.48,8.48,0,0,1,8.16-7.2,8.19,8.19,0,0,1,7,4.13A8.31,8.31,0,0,1,137.22,85.93Z" transform="translate(-44.84 -68.94)"/></svg>