<svg xmlns="http://www.w3.org/2000/svg" viewBox="0 0 255.21 281.1"><defs><style>.cls-1{fill:#b8f1ed;opacity:0.52;}.cls-2,.cls-3,.cls-4{fill:none;stroke:#42210b;stroke-miterlimit:10;stroke-width:2px;}.cls-3{stroke-dasharray:15.78 15.78;}.cls-4{stroke-dasharray:21.95 21.95;}</style></defs><title>手提袋</title><g id="图层_7" data-name="图层 7"><path class="cls-1" d="M1054.3,711.08,845.17,636.9c-6.22-2.21-6.49-11.53-.81-20.37l98.77-154c2.31-3.6,7.27-5.38,11.07-4L1082,503.88c3.8,1.35,6.53,5.86,6.06,10.11l-20.33,181.78C1066.6,706.22,1060.52,713.28,1054.3,711.08Z" transform="translate(-832.94 -430.38)"/></g><g id="图层_4" data-name="图层 4"><path class="cls-2" d="M1016.66,688.1,843.12,624.6c-10.33-3.78-12.15-18.15-4.42-31.49L920,452.88c4-7,12.92-10.34,20-7.76L964.31,454l-1.47,4a17.34,17.34,0,0,0,10.31,22.23L1010.48,494a17.35,17.35,0,0,0,22.24-10.33l1.48-4,24.34,8.91c7,2.58,11.66,10.89,10.26,18.82l-28.44,159.57C1037.66,682.09,1027,691.89,1016.66,688.1Z" transform="translate(-832.94 -430.38)"/><path class="cls-2" d="M952.6,466.44l10.33,3.78a17.28,17.28,0,0,0,6.82,8.4" transform="translate(-832.94 -430.38)"/><line class="cls-3" x1="151.47" y1="54.05" x2="173.71" y2="62.19"/><path class="cls-2" d="M1014.17,494.88a17.37,17.37,0,0,0,10.63-2l10.33,3.78" transform="translate(-832.94 -430.38)"/><path class="cls-4" d="M1052.12,508.85a14.66,14.66,0,0,1,.49,6.91l-24,134.78c-2.28,12.82-11.29,21.1-20,17.91L862,614.81c-8.71-3.19-10.25-15.33-3.73-26.6l68.66-118.45a14.72,14.72,0,0,1,15.34-7" transform="translate(-832.94 -430.38)"/><path class="cls-2" d="M1038.32,468.34l-4.12,11.27L964.31,454l4.13-11.27a17.33,17.33,0,0,1,22.22-10.33L1028,446.1A17.34,17.34,0,0,1,1038.32,468.34Z" transform="translate(-832.94 -430.38)"/><path class="cls-2" d="M1034.2,479.61l-1.48,4A17.35,17.35,0,0,1,1010.48,494L973.15,480.3a17.34,17.34,0,0,1-10.31-22.23l1.47-4Z" transform="translate(-832.94 -430.38)"/><path class="cls-2" d="M1024.56,472a16.73,16.73,0,0,1-1.74,3.46L975.7,458.2a16.41,16.41,0,0,1,.9-3.77,17.29,17.29,0,0,1,22.22-10.31l15.41,5.63A17.33,17.33,0,0,1,1024.56,472Z" transform="translate(-832.94 -430.38)"/></g></svg>