<svg xmlns="http://www.w3.org/2000/svg" viewBox="0 0 479.61 413.86"><defs><style>.cls-1{fill:#fc9d9a;opacity:0.45;}.cls-2,.cls-3{fill:none;stroke:#231815;stroke-miterlimit:10;stroke-width:2px;}.cls-3{stroke-dasharray:22;}</style></defs><title>手推车</title><g id="图层_7" data-name="图层 7"><path class="cls-1" d="M583,472.63,297.87,557.26c-5.13,1.52-11,.13-13-3.13L160.43,354.26c-4-6.39-1.29-13.48,6-15.66L573.89,217.69c7.33-2.17,13.46,2.3,13.61,9.83l4.74,235.39C592.31,466.75,588.17,471.1,583,472.63Z" transform="translate(-158.59 -217.14)"/><circle class="cls-1" cx="403.41" cy="348.86" r="43"/><circle class="cls-1" cx="218.91" cy="374.36" r="39.5"/></g><g id="图层_5" data-name="图层 5"><path class="cls-2" d="M632.75,270.41l4.23,29.4a20.93,20.93,0,0,1-17.73,23.71L578,329.46l.3-10.91.66-24.32a50.76,50.76,0,0,0-1.4-13.53c-3.25-13.2-11.88-21.76-22.4-20.25l53.9-7.77A20.93,20.93,0,0,1,632.75,270.41Z" transform="translate(-158.59 -217.14)"/><path class="cls-3" d="M541.92,494l-202.5,40.76c-7.57,1.53-17.81-2.52-23.09-9.3L206.42,384.15c-12.19-15.68-12.8-31.42-.52-34.13l332.51-73.36c13.07-2.89,23.23,11.28,22.72,30.34l-4.59,169.74C556.33,484.81,549.78,492.36,541.92,494Z" transform="translate(-158.59 -217.14)"/><circle class="cls-2" cx="391.54" cy="342.73" r="43.86"/><circle class="cls-2" cx="200.87" cy="367.7" r="27.65"/><circle class="cls-2" cx="200.87" cy="367.7" r="6.81"/><circle class="cls-2" cx="391.59" cy="343.08" r="11.35"/><path class="cls-2" d="M578.94,294.23l-.66,24.32-.3,10.91-4.11,152.48c-.23,8.92-7.49,17.27-16.17,19L333.78,546c-8.36,1.69-19.68-2.77-25.52-10.28L186.72,379.56c-13.49-17.35-14.17-34.75-.59-37.75l359.14-79.24,8.55-1.88,1.32-.24c10.52-1.51,19.15,7.05,22.4,20.25A50.76,50.76,0,0,1,578.94,294.23Z" transform="translate(-158.59 -217.14)"/><path class="cls-2" d="M612.93,288.09l1.84,12.71a12.41,12.41,0,0,1-10.48,14l-26,3.75.66-24.32a50.76,50.76,0,0,0-1.4-13.53l21.39-3.08A12.38,12.38,0,0,1,612.93,288.09Z" transform="translate(-158.59 -217.14)"/></g></svg>