<svg xmlns="http://www.w3.org/2000/svg" viewBox="0 0 199.78 200.58"><defs><style>.cls-1{fill:#f1f1b8;opacity:0.65;}.cls-2,.cls-3{fill:none;stroke:#231815;stroke-miterlimit:10;stroke-width:2px;}.cls-3{stroke-dasharray:22;}</style></defs><title>球</title><g id="图层_7" data-name="图层 7"><circle class="cls-1" cx="101.78" cy="102.58" r="98"/></g><g id="图层_3" data-name="图层 3"><circle class="cls-2" cx="88.39" cy="88.39" r="87.38"/><circle class="cls-3" cx="88.14" cy="88.39" r="83.57"/><path class="cls-2" d="M975.92,168.74a20.85,20.85,0,0,1-3,1.25c-13.56,4.32-29.1-6.44-34.71-24-3.94-12.34-1.95-24.76,4.26-32.57" transform="translate(-831.22 -77.42)"/><path class="cls-2" d="M985.1,159.78a25.69,25.69,0,0,1-1.75,2.64" transform="translate(-831.22 -77.42)"/><path class="cls-2" d="M940.92,228.78a30.68,30.68,0,0,1-15.59,10.27" transform="translate(-831.22 -77.42)"/><path class="cls-2" d="M886.48,226.1c-5.46-7.35-7.58-16.58-5-25.44,4.69-15.87,22.86-24.5,40.58-19.26,15.27,4.51,25.23,17.86,24.67,31.63" transform="translate(-831.22 -77.42)"/><path class="cls-2" d="M881.34,97.94" transform="translate(-831.22 -77.42)"/><path class="cls-2" d="M858.21,116.31a34.2,34.2,0,0,1,8.67-11.5" transform="translate(-831.22 -77.42)"/><path class="cls-2" d="M881.34,97.94a24.29,24.29,0,0,1,14.24,1.91c13.45,6.29,18.53,23.85,11.35,39.23S883,161.82,869.56,155.53a24.07,24.07,0,0,1-9.6-8.13" transform="translate(-831.22 -77.42)"/></g></svg>